<mxfile host="app.diagrams.net" agent="Mozilla/5.0 (Windows NT 10.0; Win64; x64) AppleWebKit/537.36 (KHTML, like Gecko) Chrome/135.0.0.0 Safari/537.36" version="26.2.14">
  <diagram name="Page-1" id="PDlNSKYtTyUDnKdYTjSV">
    <mxGraphModel dx="1678" dy="942" grid="1" gridSize="10" guides="1" tooltips="1" connect="1" arrows="1" fold="1" page="1" pageScale="1" pageWidth="1100" pageHeight="850" math="0" shadow="0">
      <root>
        <mxCell id="0" />
        <mxCell id="1" parent="0" />
        <mxCell id="VCSeupAfM9weUvPpeTBG-1" value="Client" style="swimlane;whiteSpace=wrap;html=1;" parent="1" vertex="1">
          <mxGeometry x="130" y="40" width="169" height="118" as="geometry" />
        </mxCell>
        <mxCell id="VCSeupAfM9weUvPpeTBG-3" value="" style="html=1;verticalLabelPosition=bottom;align=center;labelBackgroundColor=#ffffff;verticalAlign=top;strokeWidth=2;strokeColor=#0080F0;shadow=0;dashed=0;shape=mxgraph.ios7.icons.smartphone;" parent="VCSeupAfM9weUvPpeTBG-1" vertex="1">
          <mxGeometry x="30" y="40" width="18" height="30" as="geometry" />
        </mxCell>
        <mxCell id="VCSeupAfM9weUvPpeTBG-4" value="" style="verticalLabelPosition=bottom;sketch=0;aspect=fixed;html=1;verticalAlign=top;strokeColor=none;align=center;outlineConnect=0;shape=mxgraph.citrix.desktop;" parent="VCSeupAfM9weUvPpeTBG-1" vertex="1">
          <mxGeometry x="80" y="29" width="54.49" height="60" as="geometry" />
        </mxCell>
        <mxCell id="VCSeupAfM9weUvPpeTBG-5" value="API Gateway" style="sketch=0;points=[[0,0,0],[0.25,0,0],[0.5,0,0],[0.75,0,0],[1,0,0],[0,1,0],[0.25,1,0],[0.5,1,0],[0.75,1,0],[1,1,0],[0,0.25,0],[0,0.5,0],[0,0.75,0],[1,0.25,0],[1,0.5,0],[1,0.75,0]];outlineConnect=0;fontColor=#232F3E;fillColor=#E7157B;strokeColor=#ffffff;dashed=0;verticalLabelPosition=bottom;verticalAlign=top;align=center;html=1;fontSize=12;fontStyle=0;aspect=fixed;shape=mxgraph.aws4.resourceIcon;resIcon=mxgraph.aws4.api_gateway;" parent="1" vertex="1">
          <mxGeometry x="130" y="347" width="73" height="73" as="geometry" />
        </mxCell>
        <mxCell id="VCSeupAfM9weUvPpeTBG-9" value="AuthService" style="swimlane;whiteSpace=wrap;html=1;" parent="1" vertex="1">
          <mxGeometry x="500" y="210" width="290" height="130" as="geometry" />
        </mxCell>
        <mxCell id="VCSeupAfM9weUvPpeTBG-12" value="REST API" style="points=[];aspect=fixed;html=1;align=center;shadow=0;dashed=0;fillColor=#FF6A00;strokeColor=none;shape=mxgraph.alibaba_cloud.ecs_elastic_compute_service;labelPosition=center;verticalLabelPosition=bottom;verticalAlign=top;" parent="VCSeupAfM9weUvPpeTBG-9" vertex="1">
          <mxGeometry x="20" y="42.35" width="48.6" height="45.3" as="geometry" />
        </mxCell>
        <mxCell id="AZvEofXBRolOwsyIP7gU-1" value="Postgres Db" style="image;aspect=fixed;html=1;points=[];align=center;fontSize=12;image=img/lib/azure2/databases/Azure_Database_PostgreSQL_Server.svg;" parent="VCSeupAfM9weUvPpeTBG-9" vertex="1">
          <mxGeometry x="230" y="47.35" width="30" height="40" as="geometry" />
        </mxCell>
        <mxCell id="gzEFFC3QH6tSRkAGjtg0-8" value="Dapper" style="html=1;dashed=0;whiteSpace=wrap;shape=mxgraph.dfd.start;rotation=90;fillColor=#ffcc99;strokeColor=#36393d;" parent="VCSeupAfM9weUvPpeTBG-9" vertex="1">
          <mxGeometry x="130" y="52.35" width="50" height="30" as="geometry" />
        </mxCell>
        <mxCell id="atZdzSUJizshVb846BQG-1" value="" style="shape=flexArrow;endArrow=classic;startArrow=classic;html=1;rounded=0;exitX=1.049;exitY=0.596;exitDx=0;exitDy=0;exitPerimeter=0;entryX=0.551;entryY=1.033;entryDx=0;entryDy=0;entryPerimeter=0;fillColor=#bac8d3;strokeColor=#23445d;" edge="1" parent="VCSeupAfM9weUvPpeTBG-9" source="VCSeupAfM9weUvPpeTBG-12" target="gzEFFC3QH6tSRkAGjtg0-8">
          <mxGeometry width="100" height="100" relative="1" as="geometry">
            <mxPoint x="410" y="302.35" as="sourcePoint" />
            <mxPoint x="140" y="72.35" as="targetPoint" />
          </mxGeometry>
        </mxCell>
        <mxCell id="atZdzSUJizshVb846BQG-2" value="" style="shape=flexArrow;endArrow=classic;startArrow=classic;html=1;rounded=0;exitX=1.049;exitY=0.596;exitDx=0;exitDy=0;exitPerimeter=0;entryX=0.013;entryY=0.508;entryDx=0;entryDy=0;entryPerimeter=0;fillColor=#bac8d3;strokeColor=#23445d;" edge="1" parent="VCSeupAfM9weUvPpeTBG-9" target="AZvEofXBRolOwsyIP7gU-1">
          <mxGeometry width="100" height="100" relative="1" as="geometry">
            <mxPoint x="170" y="66.85" as="sourcePoint" />
            <mxPoint x="238" y="67.85" as="targetPoint" />
          </mxGeometry>
        </mxCell>
        <mxCell id="VCSeupAfM9weUvPpeTBG-10" value="User Service" style="swimlane;whiteSpace=wrap;html=1;" parent="1" vertex="1">
          <mxGeometry x="500" y="390" width="290" height="120" as="geometry" />
        </mxCell>
        <mxCell id="atZdzSUJizshVb846BQG-3" value="REST API" style="points=[];aspect=fixed;html=1;align=center;shadow=0;dashed=0;fillColor=#FF6A00;strokeColor=none;shape=mxgraph.alibaba_cloud.ecs_elastic_compute_service;labelPosition=center;verticalLabelPosition=bottom;verticalAlign=top;" vertex="1" parent="VCSeupAfM9weUvPpeTBG-10">
          <mxGeometry x="20" y="37.35000000000002" width="48.6" height="45.3" as="geometry" />
        </mxCell>
        <mxCell id="atZdzSUJizshVb846BQG-5" value="EF" style="html=1;dashed=0;whiteSpace=wrap;shape=mxgraph.dfd.start;rotation=90;fillColor=#ffcc99;strokeColor=#36393d;" vertex="1" parent="VCSeupAfM9weUvPpeTBG-10">
          <mxGeometry x="130" y="47.35000000000002" width="50" height="30" as="geometry" />
        </mxCell>
        <mxCell id="atZdzSUJizshVb846BQG-6" value="" style="shape=flexArrow;endArrow=classic;startArrow=classic;html=1;rounded=0;exitX=1.049;exitY=0.596;exitDx=0;exitDy=0;exitPerimeter=0;entryX=0.551;entryY=1.033;entryDx=0;entryDy=0;entryPerimeter=0;fillColor=#bac8d3;strokeColor=#23445d;" edge="1" parent="VCSeupAfM9weUvPpeTBG-10" source="atZdzSUJizshVb846BQG-3" target="atZdzSUJizshVb846BQG-5">
          <mxGeometry width="100" height="100" relative="1" as="geometry">
            <mxPoint x="410" y="297.35" as="sourcePoint" />
            <mxPoint x="140" y="67.35000000000002" as="targetPoint" />
          </mxGeometry>
        </mxCell>
        <mxCell id="atZdzSUJizshVb846BQG-7" value="" style="shape=flexArrow;endArrow=classic;startArrow=classic;html=1;rounded=0;exitX=1.049;exitY=0.596;exitDx=0;exitDy=0;exitPerimeter=0;entryX=0.013;entryY=0.508;entryDx=0;entryDy=0;entryPerimeter=0;fillColor=#bac8d3;strokeColor=#23445d;" edge="1" parent="VCSeupAfM9weUvPpeTBG-10">
          <mxGeometry width="100" height="100" relative="1" as="geometry">
            <mxPoint x="170" y="61.85000000000002" as="sourcePoint" />
            <mxPoint x="230.38999999999987" y="62.66999999999996" as="targetPoint" />
          </mxGeometry>
        </mxCell>
        <mxCell id="gzEFFC3QH6tSRkAGjtg0-5" value="" style="image;aspect=fixed;html=1;points=[];align=center;fontSize=12;image=img/lib/azure2/databases/SQL_Server.svg;" parent="VCSeupAfM9weUvPpeTBG-10" vertex="1">
          <mxGeometry x="230" y="39.52999999999997" width="45.65" height="45.65" as="geometry" />
        </mxCell>
        <mxCell id="AZvEofXBRolOwsyIP7gU-2" value="" style="sketch=0;aspect=fixed;pointerEvents=1;shadow=0;dashed=0;html=1;strokeColor=none;labelPosition=center;verticalLabelPosition=bottom;verticalAlign=top;align=center;fillColor=#00188D;shape=mxgraph.azure.queue_generic;rotation=90;" parent="1" vertex="1">
          <mxGeometry x="220" y="359.5" width="160" height="48" as="geometry" />
        </mxCell>
        <mxCell id="AZvEofXBRolOwsyIP7gU-4" value="Network Load Balancer" style="sketch=0;outlineConnect=0;fontColor=#232F3E;gradientColor=none;strokeColor=#ffffff;fillColor=#232F3E;dashed=0;verticalLabelPosition=middle;verticalAlign=bottom;align=center;html=1;whiteSpace=wrap;fontSize=10;fontStyle=1;spacing=3;shape=mxgraph.aws4.productIcon;prIcon=mxgraph.aws4.network_load_balancer;" parent="1" vertex="1">
          <mxGeometry x="390" y="237" width="80" height="110" as="geometry" />
        </mxCell>
        <mxCell id="gzEFFC3QH6tSRkAGjtg0-1" value="Nginx Load balancer" style="shape=note;size=15;align=left;spacingLeft=10;html=1;whiteSpace=wrap;" parent="1" vertex="1">
          <mxGeometry x="370" y="118" width="150" height="40" as="geometry" />
        </mxCell>
        <mxCell id="gzEFFC3QH6tSRkAGjtg0-2" value="" style="edgeStyle=none;endArrow=none;exitX=0.5;exitY=1;dashed=1;html=1;rounded=0;exitDx=0;exitDy=0;exitPerimeter=0;" parent="1" source="gzEFFC3QH6tSRkAGjtg0-1" target="AZvEofXBRolOwsyIP7gU-4" edge="1">
          <mxGeometry x="1" relative="1" as="geometry">
            <mxPoint x="390" y="78" as="targetPoint" />
          </mxGeometry>
        </mxCell>
        <mxCell id="gzEFFC3QH6tSRkAGjtg0-4" value="Message Queue (RabbitMq) is used to communicate between AuthService and UserService" style="shape=note;size=15;align=left;spacingLeft=10;html=1;whiteSpace=wrap;" parent="1" vertex="1">
          <mxGeometry x="190" y="500" width="220" height="90" as="geometry" />
        </mxCell>
        <mxCell id="gzEFFC3QH6tSRkAGjtg0-6" value="Auth Service handles authentication. Service consists of an REST API backed with Postgres DB&amp;nbsp;" style="shape=note;size=15;align=left;spacingLeft=10;html=1;whiteSpace=wrap;" parent="1" vertex="1">
          <mxGeometry x="720" y="68" width="240" height="90" as="geometry" />
        </mxCell>
        <mxCell id="gzEFFC3QH6tSRkAGjtg0-7" value="" style="edgeStyle=none;endArrow=none;exitX=0.5;exitY=1;dashed=1;html=1;rounded=0;exitDx=0;exitDy=0;exitPerimeter=0;entryX=1;entryY=0.5;entryDx=0;entryDy=0;" parent="1" source="gzEFFC3QH6tSRkAGjtg0-6" target="VCSeupAfM9weUvPpeTBG-9" edge="1">
          <mxGeometry x="1" relative="1" as="geometry">
            <mxPoint x="786" y="219" as="targetPoint" />
          </mxGeometry>
        </mxCell>
        <mxCell id="atZdzSUJizshVb846BQG-8" value="Movie Service" style="swimlane;whiteSpace=wrap;html=1;" vertex="1" parent="1">
          <mxGeometry x="500" y="570" width="290" height="120" as="geometry" />
        </mxCell>
        <mxCell id="atZdzSUJizshVb846BQG-9" value="REST API" style="points=[];aspect=fixed;html=1;align=center;shadow=0;dashed=0;fillColor=#FF6A00;strokeColor=none;shape=mxgraph.alibaba_cloud.ecs_elastic_compute_service;labelPosition=center;verticalLabelPosition=bottom;verticalAlign=top;" vertex="1" parent="atZdzSUJizshVb846BQG-8">
          <mxGeometry x="20" y="37.35000000000002" width="48.6" height="45.3" as="geometry" />
        </mxCell>
        <mxCell id="atZdzSUJizshVb846BQG-10" value="MDb.Enties" style="html=1;dashed=0;whiteSpace=wrap;shape=mxgraph.dfd.start;rotation=90;fillColor=#ffcc99;strokeColor=#36393d;" vertex="1" parent="atZdzSUJizshVb846BQG-8">
          <mxGeometry x="130" y="47.35000000000002" width="50" height="30" as="geometry" />
        </mxCell>
        <mxCell id="atZdzSUJizshVb846BQG-11" value="" style="shape=flexArrow;endArrow=classic;startArrow=classic;html=1;rounded=0;exitX=1.049;exitY=0.596;exitDx=0;exitDy=0;exitPerimeter=0;entryX=0.551;entryY=1.033;entryDx=0;entryDy=0;entryPerimeter=0;fillColor=#bac8d3;strokeColor=#23445d;" edge="1" parent="atZdzSUJizshVb846BQG-8" source="atZdzSUJizshVb846BQG-9" target="atZdzSUJizshVb846BQG-10">
          <mxGeometry width="100" height="100" relative="1" as="geometry">
            <mxPoint x="410" y="297.35" as="sourcePoint" />
            <mxPoint x="140" y="67.35000000000002" as="targetPoint" />
          </mxGeometry>
        </mxCell>
        <mxCell id="atZdzSUJizshVb846BQG-12" value="" style="shape=flexArrow;endArrow=classic;startArrow=classic;html=1;rounded=0;exitX=1.049;exitY=0.596;exitDx=0;exitDy=0;exitPerimeter=0;entryX=0.013;entryY=0.508;entryDx=0;entryDy=0;entryPerimeter=0;fillColor=#bac8d3;strokeColor=#23445d;" edge="1" parent="atZdzSUJizshVb846BQG-8">
          <mxGeometry width="100" height="100" relative="1" as="geometry">
            <mxPoint x="170" y="61.85000000000002" as="sourcePoint" />
            <mxPoint x="230.38999999999987" y="62.66999999999996" as="targetPoint" />
          </mxGeometry>
        </mxCell>
        <mxCell id="atZdzSUJizshVb846BQG-14" value="MongoDB" style="shape=rect;fillColor=#0F62FE;aspect=fixed;resizable=0;labelPosition=center;verticalLabelPosition=bottom;align=center;verticalAlign=top;strokeColor=none;fontSize=14;" vertex="1" parent="atZdzSUJizshVb846BQG-8">
          <mxGeometry x="228" y="38" width="48" height="48" as="geometry" />
        </mxCell>
        <mxCell id="atZdzSUJizshVb846BQG-15" value="" style="fillColor=#ffffff;strokeColor=none;dashed=0;outlineConnect=0;html=1;labelPosition=center;verticalLabelPosition=bottom;verticalAlign=top;part=1;movable=0;resizable=0;rotatable=0;shape=mxgraph.ibm_cloud.database--mongodb" vertex="1" parent="atZdzSUJizshVb846BQG-14">
          <mxGeometry width="24" height="24" relative="1" as="geometry">
            <mxPoint x="12" y="12" as="offset" />
          </mxGeometry>
        </mxCell>
      </root>
    </mxGraphModel>
  </diagram>
</mxfile>
